<svg width="169" height="60" viewBox="0 0 169 60" fill="none" xmlns="http://www.w3.org/2000/svg">
<path d="M23.7396 35.4305L23.0811 35.7985L23.5498 35.2125C26.5987 31.4616 28.2976 26.7942 28.3732 21.961L28.385 21.2063L28.6545 21.9094C30.3825 26.4274 33.5807 30.2324 37.7342 32.7118L38.381 33.0985L37.6357 32.979C32.8598 32.213 27.9651 33.0765 23.7396 35.4305Z" fill="#5E5CEB"/>
<path d="M34.4207 30.2789C30.3332 24.518 31.034 21.2344 32.1707 16.8469C33.5183 11.6438 30.3308 6.48049 24.7504 8.01096C22.2777 8.69064 21.4035 10.3735 21.0941 11.5547C19.5801 17.25 28.5613 25.7344 34.4207 30.2789Z" fill="white"/>
<path d="M17.419 34.7039C12.2393 36.1382 9.36118 41.4843 13.4768 45.5484C15.3002 47.3484 17.194 47.264 18.3729 46.9547C24.0612 45.4148 26.9182 33.3937 27.926 26.0484C24.9799 32.4586 21.7971 33.4945 17.419 34.7039Z" fill="white"/>
<path d="M50.3908 31.6031C46.2119 27.4477 34.3736 30.9821 27.5088 33.7828C34.54 33.1242 37.0338 35.3719 40.2658 38.55C44.0979 42.3188 50.1635 42.1383 51.6283 36.5414C52.2658 34.0617 51.2463 32.4633 50.3908 31.6031Z" fill="white"/>
<path d="M74.48 37H77.28V31.76H80.8C83.92 31.76 85.94 29.9 85.94 27.36C85.94 24.86 84.02 23 80.8 23H74.48V37ZM77.28 29.42V25.32H80.52C82.22 25.32 83.14 26.16 83.14 27.34C83.14 28.56 82.22 29.42 80.52 29.42H77.28ZM93.3142 37.28C96.4942 37.28 98.8142 35.4 98.8142 32.66C98.8142 30.54 97.5342 29.2 95.1942 28.76L92.0542 28.16C90.9542 27.94 90.5142 27.52 90.5142 26.7C90.5142 25.56 91.5342 24.94 93.0742 24.94C94.6142 24.94 95.4942 25.82 95.7342 27.06H98.4342C98.2142 24.38 96.2142 22.72 93.0942 22.72C89.9742 22.72 87.7942 24.46 87.7942 26.88C87.7942 29.04 89.0142 30.16 91.2542 30.6L94.2342 31.2C95.4942 31.46 96.0942 32.04 96.0942 32.98C96.0942 34.22 95.0742 35.06 93.3542 35.06C91.5142 35.06 90.4942 34.06 90.1742 32.64H87.4542C87.8342 35.46 89.9742 37.28 93.3142 37.28ZM101.199 37H103.999V31.76H107.519C110.639 31.76 112.659 29.9 112.659 27.36C112.659 24.86 110.739 23 107.519 23H101.199V37ZM103.999 29.42V25.32H107.239C108.939 25.32 109.859 26.16 109.859 27.34C109.859 28.56 108.939 29.42 107.239 29.42H103.999ZM114.773 37H120.193C124.433 37 127.393 33.92 127.393 30C127.393 26.08 124.433 23 120.193 23H114.773V37ZM117.553 34.6V25.4H119.813C122.693 25.4 124.593 27.38 124.593 30C124.593 32.62 122.693 34.6 119.813 34.6H117.553ZM129.714 37H132.514V31.3H139.434V28.86H132.514V25.44H139.714V23H129.714V37ZM142.136 37H144.936V32.56L147.076 30.36L151.216 37H154.436L149.076 28.46L154.296 23H150.916L144.936 29.1V23H142.136V37ZM156.314 25.16H159.094V22.52H156.314V25.16ZM156.334 37H159.074V26.6H156.334V37ZM165.82 37.14C166.58 37.14 167.32 37.04 167.74 36.88V34.66C167.48 34.76 167.08 34.84 166.6 34.84C165.68 34.84 165.22 34.32 165.22 33.4V28.8H167.72V26.6H165.22V23.86H162.48V26.6H160.82V28.8H162.48V33.48C162.48 35.9 163.62 37.14 165.82 37.14Z" fill="white"/>
</svg>
