<?xml version="1.0" encoding="UTF-8" standalone="no"?><!DOCTYPE svg PUBLIC "-//W3C//DTD SVG 1.1//EN" "http://www.w3.org/Graphics/SVG/1.1/DTD/svg11.dtd">
<svg style="fill-rule:evenodd;clip-rule:evenodd;stroke-linecap:round;stroke-linejoin:round;" xmlns:xlink="http://www.w3.org/1999/xlink" xmlns="http://www.w3.org/2000/svg" xml:space="preserve" version="1.1" viewBox="0 0 64 64">
<g id="Untitled">
<path d="M19.4036+44.698L18.3579+45.2822L19.1022+44.3519C23.943+38.3964+26.6403+30.986+26.7605+23.312L26.7791+22.1138L27.207+23.2302C29.9506+30.4035+35.0286+36.4449+41.6231+40.3813L42.6501+40.9953L41.4668+40.8056C33.884+39.5895+26.1125+40.9605+19.4036+44.698Z" opacity="1" fill="#06478e"/>
<path d="M36.3621+36.5187C29.8723+27.3719+30.985+22.1584+32.7898+15.1923C34.9295+6.93113+29.8686-1.26677+21.0083+1.1632C17.0824+2.24236+15.6944+4.91422+15.2032+6.78973C12.7993+15.8323+27.0591+29.3032+36.3621+36.5187Z" opacity="1" fill="#3b81da"/>
<path d="M9.3683+43.5444C1.14437+45.8218-3.42534+54.3099+3.10918+60.7625C6.0043+63.6205+9.01106+63.4865+10.8828+62.9953C19.9143+60.5504+24.4505+41.4642+26.0506+29.8019C21.373+39.9794+16.3196+41.6242+9.3683+43.5444Z" opacity="1" fill="#3b81da"/>
<path d="M61.7184+38.6212C55.0834+32.0234+36.2874+37.6351+25.3879+42.0819C36.5516+41.0363+40.511+44.6049+45.6426+49.6509C51.7268+55.6347+61.3574+55.3481+63.6832+46.4618C64.6953+42.5248+63.0766+39.9869+61.7184+38.6212Z" opacity="1" fill="#3b81da"/>
</g>
</svg>
