<svg xmlns="http://www.w3.org/2000/svg" viewBox="0 0 320 360"><path d="M120.59 191.3l-3.6 2 2.6-3.2a117.65 117.65 0 0 0 26.34-72.38l.06-4.12 1.47 3.85a117.65 117.65 0 0 0 49.51 59l3.54 2.12-4.07-.65a117.65 117.65 0 0 0-75.85 13.38z" fill="#06478e"/><path d="M178.92 163.17c-22.33-31.47-18.5-49.39-12.29-73.36C174 61.4 156.58 33.2 126.1 41.56c-13.49 3.7-18.26 12.9-20 19.34-8.22 31.1 40.83 77.45 72.82 102.27zm-92.85 24.16c-28.29 7.83-44 37-21.52 59.23 10 9.83 20.3 9.37 26.74 7.63 31.06-8.42 46.71-74.06 52.16-114.19-16.09 35.08-33.52 40.73-57.38 47.33zm180.02-16.93c-22.82-22.7-87.47-3.39-125 11.91 38.42-3.6 52 8.67 69.68 26 20.93 20.58 54.06 19.6 62.05-11 3.57-13.48-2.01-22.21-6.73-26.91z" fill="#3b81da"/><text transform="translate(23.89 335.48)" font-size="56" fill="#434549" font-family="Gotham-Bold,Gotham" font-weight="700">PSPDFKit</text></svg>