<svg viewBox="0 0 241 236" xmlns="http://www.w3.org/2000/svg"><g fill="none"><path d="M77.59 161.3l-3.6 2 2.6-3.2a117.649 117.649 0 0 0 26.34-72.38l.06-4.12 1.47 3.85a117.65 117.65 0 0 0 49.51 59l3.54 2.12-4.07-.65a117.65 117.65 0 0 0-75.85 13.38z" fill="#06478E"/><path d="M135.92 133.17c-22.33-31.47-18.5-49.39-12.29-73.36C131 31.4 113.58 3.2 83.1 11.56c-13.49 3.7-18.26 12.9-20 19.34-8.22 31.1 40.83 77.45 72.82 102.27zm-92.85 24.16c-28.29 7.83-44 37-21.52 59.23 10 9.83 20.3 9.37 26.74 7.63C79.35 215.77 95 150.13 100.45 110c-16.09 35.08-33.52 40.73-57.38 47.33zm180.02-16.93c-22.82-22.7-87.47-3.39-125 11.91 38.42-3.6 52 8.67 69.68 26 20.93 20.58 54.06 19.6 62.05-11 3.57-13.48-2.01-22.21-6.73-26.91z" fill="#3B81DA"/><path d="M142.38 132.13c39.255-10.327 69.169-10.266 84.239 4.725 7.86 7.827 11.543 18.49 8.04 31.716-8.643 33.102-45.535 37.745-70.388 13.307-11.586-11.356-17.444-16.102-25.64-19.87-10.12-4.656-22.401-6.312-39.466-4.778-1.12.374-2.235.766-3.344 1.175-10.67 39.137-25.705 65.047-46.226 70.61-10.695 2.89-21.74.751-31.56-8.902-24.32-24.049-9.892-58.306 23.703-67.604 15.582-4.31 22.672-7.024 30.045-12.245C80.88 133.822 88.46 124 95.667 108.432c.238-1.164.457-2.333.658-3.504C67.756 76.1 52.84 50.157 58.275 29.594c2.899-10.731 10.274-19.23 23.503-22.858 32.98-9.046 55.444 20.592 46.693 54.326-4.058 15.665-5.252 23.152-4.42 32.146 1.028 11.098 5.739 22.57 15.61 36.589.893.792 1.8 1.57 2.718 2.333z" stroke="#fff" stroke-width="10"/></g></svg>