<svg xmlns="http://www.w3.org/2000/svg" viewBox="0 0 1100 256"><path d="M87.59 170.3l-3.6 2 2.6-3.2a117.65 117.65 0 0 0 26.34-72.38l.06-4.12 1.47 3.85a117.65 117.65 0 0 0 49.51 59l3.54 2.12-4.07-.65a117.65 117.65 0 0 0-75.85 13.38z" fill="#06478e"/><path d="M145.92 142.17c-22.33-31.47-18.5-49.39-12.29-73.36C141 40.4 123.58 12.2 93.1 20.56c-13.49 3.7-18.26 12.9-20 19.34-8.22 31.1 40.83 77.45 72.82 102.27zm-92.85 24.16c-28.29 7.83-44 37-21.52 59.23 10 9.83 20.3 9.37 26.74 7.63C89.35 224.77 105 159.13 110.45 119c-16.09 35.08-33.52 40.73-57.38 47.33zm180.02-16.93c-22.82-22.7-87.47-3.39-125 11.91 38.42-3.6 52 8.67 69.68 26 20.93 20.58 54.06 19.6 62.05-11 3.57-13.48-2.01-22.21-6.73-26.91z" fill="#3b81da"/><text transform="translate(295.66 180.31)" font-size="150" fill="#434549" font-family="Gotham-Bold,Gotham" font-weight="700">PSPDFKit</text></svg>