<svg xmlns="http://www.w3.org/2000/svg" viewBox="0 0 100 100"><g data-name="Ikone 2 copy 2"><path fill="#46b0ad" d="M60.5 46h29v3.65h-29zm0 8h29v3.65h-29zm0 8h29v3.65h-29zm0 8h29v3.65h-29zm0-56h29v3.65h-29zm0 8h29v3.65h-29zm0 8h29v3.65h-29zm0 8h29v3.65h-29zm0 40h29v3.65h-29z"/><circle cx="75" cy="92" r="3.47" fill="#942e53"/><path fill="#c4cfd6" d="M0 0h50v100H0z"/><path d="M22.7 48.21a2.74 2.74 0 0 1-.5 0z" fill="#8bcdfd"/><path fill="#8493a3" d="M7 14h36v41.63H7z"/><circle cx="25" cy="45.75" r="7.2" fill="#c4cfd6"/><path fill="#46b0ad" d="M7 55.63h36v26.02H7z"/><path d="M43 59.76H26.76s5-5 7-5.34 3.72.51 6.49-1.64 2.75-.94 2.75-.94z" fill="#942e53"/><path d="M43 62.56H20.78s6.81-4 9.55-4.18 5.1.4 8.88-1.28 3.79-.74 3.79-.74zM8.93 67s1.05-2.1 2.53-2.1 4.32 2.1 4.32 2.1z" fill="#c5507a"/><path d="M12.91 60.38a9.56 9.56 0 0 1 3-1.05 2.34 2.34 0 0 1 1.69 1.05z" fill="#942e53"/><circle cx="25" cy="92" r="3.47" fill="#942e53"/></g></svg>