<?xml version="1.0" encoding="UTF-8"?>
<svg id="Layer_1" data-name="Layer 1" xmlns="http://www.w3.org/2000/svg" width="240" height="169" version="1.1" viewBox="0 0 240 169">
  <defs>
    <style>
      .cls-1 {
        fill: #1a1414;
        stroke-width: 0px;
      }
    </style>
  </defs>
  <path class="cls-1" d="M20,104.3c-11.1,0-20-8.9-20-20s8.9-20,20-20,20,8.9,20,20-9,20-20,20ZM220,64.3c-11.1,0-20,8.9-20,20s8.9,20,20,20,20-8.9,20-20-8.9-20-20-20ZM30.5,133.2c-8.5,7.1-9.6,19.7-2.5,28.2,7.1,8.5,19.7,9.6,28.2,2.5,8.5-7.1,9.6-19.7,2.5-28.2-7.1-8.5-19.7-9.6-28.2-2.5ZM209.5,35.3c8.5-7.1,9.6-19.7,2.5-28.2-7.1-8.5-19.7-9.6-28.2-2.5-8.5,7.1-9.6,19.7-2.5,28.2,7.1,8.5,19.7,9.6,28.2,2.5ZM56.2,4.7c-8.5-7.1-21.1-6-28.2,2.5-7.1,8.5-6,21.1,2.5,28.2,8.5,7.1,21.1,6,28.2-2.5,7.1-8.5,6-21.1-2.5-28.2ZM209.5,133.2c-8.5-7.1-21.1-6-28.2,2.5-7.1,8.5-6,21.1,2.5,28.2,8.5,7.1,21.1,6,28.2-2.5,7.1-8.5,6-21.1-2.5-28.2ZM158.4,90.4c-8.5-7.1-21.1-6-28.2,2.5-7.1,8.5-6,21.1,2.5,28.2,8.5,7.1,21.1,6,28.2-2.5s6-21.1-2.5-28.2ZM107.3,47.5c-8.5-7.1-21.1-6-28.2,2.5-7.1,8.5-6,21.1,2.5,28.2,8.5,7.1,21.1,6,28.2-2.5s6-21.1-2.5-28.2Z"/>
</svg>