<?xml version="1.0" encoding="UTF-8"?>
<svg id="Layer_1" data-name="Layer 1" xmlns="http://www.w3.org/2000/svg" width="711" height="120" version="1.1" viewBox="0 0 711 120">
  <defs>
    <style>
      .cls-1 {
        fill: #efebe7;
        stroke-width: 0px;
      }
    </style>
  </defs>
  <path class="cls-1" d="M14.2,74.2c-7.9,0-14.2-6.4-14.2-14.2s6.4-14.2,14.2-14.2,14.2,6.4,14.2,14.2-6.4,14.2-14.2,14.2ZM156.6,45.8c-7.9,0-14.2,6.4-14.2,14.2s6.4,14.2,14.2,14.2,14.2-6.4,14.2-14.2-6.4-14.2-14.2-14.2ZM21.7,94.9c-6,5.1-6.8,14-1.8,20.1,5.1,6,14,6.8,20.1,1.8,6-5.1,6.8-14,1.8-20.1-5.1-6-14-6.8-20.1-1.8ZM149.1,25.1c6-5.1,6.8-14,1.8-20.1-5.1-6-14-6.8-20.1-1.8-6,5.1-6.8,14-1.8,20.1,5.1,6,14,6.8,20.1,1.8ZM40,3.3c-6-5.1-15-4.3-20.1,1.8-5.1,6-4.3,15,1.8,20.1,6,5.1,15,4.3,20.1-1.8,5.1-6,4.3-15-1.8-20.1ZM149.1,94.9c-6-5.1-15-4.3-20.1,1.8-5.1,6-4.3,15,1.8,20.1,6,5.1,15,4.3,20.1-1.8,5.1-6,4.3-15-1.8-20.1ZM112.7,64.3c-6-5.1-15-4.3-20.1,1.8-5.1,6-4.3,15,1.8,20.1,6,5.1,15,4.3,20.1-1.8,5.1-6,4.3-15-1.8-20.1ZM76.4,33.8c-6-5.1-15-4.3-20.1,1.8-5.1,6-4.3,15,1.8,20.1,6,5.1,15,4.3,20.1-1.8,5.1-6,4.3-15-1.8-20.1Z"/>
  <path class="cls-1" d="M285.4,12h12.2v96.3h-14l-33-57.9c-1.8-3.2-5.5-10.4-11.1-21.6h-.1c.2,4.1.3,8.6.5,13.5s.2,8.5.2,10.9v55.1h-12.2V12h13.7l33,57.2c1.7,2.9,4.7,8.5,9,16.9l2.4,4.6h.1c-.2-3.7-.3-7.9-.5-12.7s-.2-8.6-.2-11.5V12ZM357.4,78.2c0,14.3-5.9,21.5-17.7,21.5s-5-.2-6.9-.7c-2-.5-3.8-1.6-5.6-3.3-1.3-1.2-2.2-2.7-2.8-4.3-.6-1.6-.9-3.2-1-4.8-.1-1.6-.2-3.8-.2-6.7v-40.4h-12.8v41.1c0,3.2.1,6,.3,8.4.2,2.4.7,4.7,1.5,7.1s2,4.4,3.7,6.2c2.5,2.6,5.4,4.6,8.7,5.8s7.2,1.9,11.7,1.9,9.2-1,12.9-3.1c3.7-2.1,6.4-5,8.3-8.9v10.3h12.4V39.5h-12.4v38.6h0ZM406.9,20.4h-12.2v19.1h-14.4v10.3h14.4v41.5c0,6.2,1.7,10.7,5,13.5,3.4,2.8,8.8,4.1,16.2,4.1s3.8,0,5.6-.3c1.9-.2,3.4-.5,4.6-.8l-.3-11.3c-3.5.8-6.4,1.2-8.9,1.2s-4.6-.2-6-.6-2.4-1.1-3.1-2.1c-.6-1-1-2.4-1-4.2v-41.1h19.5v-10.3h-19.5v-19.2h0ZM461.9,42.8c-4.4,2.6-7.2,5.8-8.5,9.7v-12.9h-12.4v68.8h12.4v-31.5c0-7.2,1.1-12.8,3.2-16.9,2.1-4,5.1-6.8,8.7-8.3,3.7-1.5,8.1-2.2,13.4-2.2s3.5,0,4.3.2l.3-11.8c-3,0-4.8,0-5.6.1-6.1.6-11.4,2.2-15.8,4.8h0ZM583.8,62c1,4.1,1.5,8.3,1.5,12.7s0,2.3,0,2.9h-52.2c.1,7.6,1.8,13.2,5,16.9,3.2,3.7,8.1,5.5,14.5,5.5s10.3-1.3,13.6-3.8c3.2-2.5,5.3-6.4,6.1-11.6l11.9.9c-1.5,8-5,14.1-10.3,18.2-5.3,4.1-12.4,6.2-21.2,6.2s-18.8-3.4-24.7-10.1c-5.6-6.3-8.4-15-8.4-26.1s.7-9.9,2.2-14.3c1.5-4.4,3.6-8.1,6.5-11.3,3-3.4,6.6-6,10.7-7.7,4.1-1.8,8.7-2.6,13.6-2.6s10.7,1.2,15.5,3.5c4.8,2.3,8.6,5.7,11.3,10.1,1.8,3,3.3,6.5,4.3,10.5h0ZM572.6,67.6c0-2-.4-4.1-1.1-6.4-.7-2.3-1.5-4.2-2.6-5.8-1.8-2.6-3.9-4.5-6.6-5.7-2.6-1.2-5.8-1.8-9.6-1.8s-7,.7-9.9,2c-2.8,1.3-4.9,3.2-6.3,5.5-1.2,1.9-2,3.9-2.5,6-.5,2.2-.8,4.2-.8,6.2h39.4,0ZM653.7,51.8c-.8-2.4-2-4.5-3.6-6.2-2.5-2.6-5.4-4.6-8.7-5.8s-7.2-1.9-11.8-1.9c-10.5,0-17.6,4.1-21.2,12.2v-10.5h-12.4v68.8h12.4v-38c0-8.6,1.9-14.5,5.6-17.6,3.7-3.1,7.8-4.6,12.4-4.6s4.8.2,6.7.7c1.9.5,3.8,1.6,5.5,3.3,1.3,1.2,2.2,2.7,2.8,4.3.6,1.6,1,3.2,1.1,4.9.1,1.6.2,3.9.2,6.8v40.2h12.8v-40.8c0-3.3,0-6.1-.3-8.5-.2-2.4-.7-4.8-1.5-7.2h0ZM710.9,49.9v-10.3h-19.5v-19.1h-12.2v19.1h-14.4v10.3h14.4v41.5c0,6.2,1.7,10.7,5,13.5,3.4,2.8,8.8,4.1,16.2,4.1s3.8,0,5.6-.3c1.9-.2,3.4-.5,4.6-.8l-.3-11.3c-3.5.8-6.4,1.2-8.9,1.2s-4.6-.2-6-.6-2.4-1.1-3.1-2.1c-.6-1-1-2.4-1-4.2v-41.1h19.5,0ZM495.6,108.4h12.4V39.7h-12.4v68.8ZM501.8,10c-5,0-9,4-9,9s4,9,9,9,9-4,9-9-4-9-9-9Z"/>
</svg>