<?xml version="1.0" encoding="UTF-8"?>
<svg xmlns="http://www.w3.org/2000/svg" xmlns:xlink="http://www.w3.org/1999/xlink" width="64px" height="64px" viewBox="0 0 64 64" version="1.1">
<g id="surface1">
<rect x="0" y="0" width="64" height="64" style="fill:rgb(100%,100%,100%);fill-opacity:1;stroke:none;"/>
<path style=" stroke:none;fill-rule:nonzero;fill:rgb(76.470588%,81.176471%,83.921569%);fill-opacity:1;" d="M 63.984375 27.246094 L 63.984375 -0.273438 L -0.015625 -0.273438 L -0.015625 27.246094 Z M 63.984375 27.246094 "/>
<path style="fill:none;stroke-width:3.62513;stroke-linecap:round;stroke-linejoin:miter;stroke:rgb(27.45098%,69.019608%,67.843137%);stroke-opacity:1;stroke-miterlimit:4;" d="M 50.402832 46.99707 C 42.199707 54.156494 26.611328 70.306396 29.888916 77.667236 C 33.990479 86.865234 54.180908 60.760498 59.313965 66.894531 C 64.440918 73.022461 46.246338 83.80127 51.220703 88.647461 C 55.053711 92.382812 66.809082 79.711914 69.885254 83.80127 C 72.351074 87.072754 68.426514 91.296387 67.401123 92.999268 " transform="matrix(0.64,0,0,0.64,0,0)"/>
<path style=" stroke:none;fill-rule:nonzero;fill:rgb(58.039216%,18.039216%,32.54902%);fill-opacity:1;" d="M 49.601562 21.632812 C 54.019531 21.632812 57.601562 17.992188 57.601562 13.503906 C 57.601562 9.015625 54.019531 5.375 49.601562 5.375 C 45.183594 5.375 41.601562 9.015625 41.601562 13.503906 C 41.601562 17.992188 45.183594 21.632812 49.601562 21.632812 Z M 49.601562 21.632812 "/>
<path style=" stroke:none;fill-rule:nonzero;fill:rgb(100%,100%,100%);fill-opacity:1;" d="M 50.558594 9.34375 L 48.640625 9.34375 L 48.640625 17.664062 L 50.558594 17.664062 Z M 50.558594 9.34375 "/>
<path style=" stroke:none;fill-rule:nonzero;fill:rgb(100%,100%,100%);fill-opacity:1;" d="M 53.738281 14.453125 L 53.738281 12.53125 L 45.417969 12.53125 L 45.417969 14.453125 Z M 53.738281 14.453125 "/>
<path style=" stroke:none;fill-rule:nonzero;fill:rgb(100%,100%,100%);fill-opacity:1;" d="M 8.960938 13.503906 C 8.960938 15.976562 10.964844 17.984375 13.441406 17.984375 C 15.914062 17.984375 17.921875 15.976562 17.921875 13.503906 C 17.921875 11.03125 15.914062 9.023438 13.441406 9.023438 C 10.964844 9.023438 8.960938 11.03125 8.960938 13.503906 Z M 8.960938 13.503906 "/>
<path style=" stroke:none;fill-rule:nonzero;fill:rgb(100%,100%,100%);fill-opacity:1;" d="M 25.28125 13.503906 C 25.28125 15.976562 27.285156 17.984375 29.761719 17.984375 C 32.234375 17.984375 34.238281 15.976562 34.238281 13.503906 C 34.238281 11.03125 32.234375 9.023438 29.761719 9.023438 C 27.285156 9.023438 25.28125 11.03125 25.28125 13.503906 Z M 25.28125 13.503906 "/>
</g>
</svg>
