<svg width="24" height="24" viewBox="0 0 24 24" fill="none" xmlns="http://www.w3.org/2000/svg">
<path opacity="0.66" d="M21.5449 20.16C21.5449 20.5579 21.3868 20.9394 21.1055 21.2207C20.8242 21.502 20.4427 21.66 20.0449 21.66C19.647 21.66 19.2655 21.502 18.9842 21.2207C18.7029 20.9394 18.5449 20.5579 18.5449 20.16C18.5449 19.33 19.2149 16.79 20.0449 16.79C20.8749 16.79 21.5449 19.33 21.5449 20.16Z" fill="black"/>
<path d="M13.1142 16.389L14.7617 14.7414L11.2262 11.2059L7.69067 7.67035L6.04312 9.31791C5.83662 9.52425 5.71886 9.80306 5.71489 10.0949C5.71093 10.3868 5.82109 10.6687 6.0219 10.8806L11.5303 16.389C11.6343 16.493 11.7577 16.5755 11.8936 16.6318C12.0295 16.688 12.1751 16.717 12.3222 16.717C12.4693 16.717 12.6149 16.688 12.7508 16.6318C12.8867 16.5755 13.0102 16.493 13.1142 16.389Z" stroke="black" stroke-width="0.9" stroke-miterlimit="10"/>
<path d="M7.67004 7.63997C7.67004 7.63997 12.27 3.03997 11.56 2.33997L15.1 5.86997L13 7.99997L16.53 7.29997L20.78 11.54L20.07 13.66C20.07 13.66 20.07 12.25 17.95 12.95C16.7744 13.3098 15.6876 13.9129 14.76 14.72" stroke="black" stroke-width="0.9" stroke-linecap="round" stroke-linejoin="round"/>
<path d="M7.75996 13.39L8.99996 14.62L5.65996 18.9C5.52546 19.0739 5.35551 19.2171 5.1614 19.3203C4.96729 19.4235 4.75345 19.4842 4.53408 19.4984C4.31471 19.5126 4.09483 19.48 3.88904 19.4027C3.68324 19.3254 3.49624 19.2053 3.34044 19.0502C3.18464 18.8951 3.06361 18.7086 2.98539 18.5032C2.90717 18.2978 2.87353 18.078 2.88673 17.8586C2.89992 17.6392 2.95964 17.4251 3.06192 17.2305C3.1642 17.0359 3.3067 16.8653 3.47996 16.73L7.75996 13.39ZM7.83996 12.05L7.14996 12.6L2.86996 15.94C2.45136 16.2668 2.14524 16.7161 1.99431 17.2253C1.84338 17.7344 1.85519 18.278 2.02807 18.7801C2.20095 19.2822 2.52628 19.7179 2.95866 20.0262C3.39105 20.3345 3.9089 20.5002 4.43996 20.5C4.8278 20.4985 5.21005 20.4074 5.55695 20.234C5.90384 20.0605 6.20602 19.8093 6.43996 19.5L9.78996 15.22L10.33 14.52L9.70996 13.9L8.46996 12.68L7.83996 12.05Z" fill="black"/>
<path opacity="0.33" d="M20.76 11.53L16.51 7.29004L14.44 7.70004C15 9.50003 16 9.99997 17 10.5C18 11 16.2479 11.9392 16 13.68C16.5685 13.395 17.3267 13.1711 17.93 12.97C20.05 12.27 20.05 13.68 20.05 13.68L20.76 11.53Z" fill="black"/>
<path opacity="0.33" d="M10.21 4.89997C10.5 5.49997 12 4 14 7L15.1 5.86997L11.56 2.33997C11.9 2.66997 11.12 3.79997 10.21 4.89997Z" fill="black"/>
</svg>
