<svg width="24" height="24" viewBox="0 0 24 24" fill="none" xmlns="http://www.w3.org/2000/svg">
<path d="M2.60002 11.1L9.00002 17.5C9.60002 18.1 10.5 18.1 11.1 17.5L17.1 11.5H18.7C19.1 11.5 19.4 11 19.1 10.6L10.2 1.7C10.1 1.6 9.90002 1.6 9.80002 1.7L2.60002 8.9C2.00002 9.5 2.00002 10.5 2.60002 11.1Z" stroke="black" stroke-miterlimit="10" stroke-linecap="round" stroke-linejoin="round"/>
<path d="M11.4 9.80002C12.0628 9.80002 12.6 9.26277 12.6 8.60002C12.6 7.93728 12.0628 7.40002 11.4 7.40002C10.7373 7.40002 10.2 7.93728 10.2 8.60002C10.2 9.26277 10.7373 9.80002 11.4 9.80002Z" fill="black"/>
<path d="M11.4 8.59998L3.59998 5.09998" stroke="black" stroke-miterlimit="10" stroke-linecap="round"/>
<path opacity="0.66" d="M21.5 19.7C21.5 20.5 20.8 21.2 20 21.2C19.2 21.2 18.5 20.5 18.5 19.7C18.5 18.9 19.2 16.3 20 16.3C20.8 16.3 21.5 18.9 21.5 19.7Z" fill="black"/>
<path opacity="0.33" d="M3.5 12H16L15.3 13.1L10 18L3.5 12Z" fill="black"/>
</svg>
