<svg width="24" height="24" fill="none" xmlns="http://www.w3.org/2000/svg"><path d="M.5 8A1.5 1.5 0 0 1 2 6.5h20A1.5 1.5 0 0 1 23.5 8v8a1.5 1.5 0 0 1-1.5 1.5H2A1.5 1.5 0 0 1 .5 16V8z" stroke="#000" stroke-opacity=".33"/><path d="M3 9.95c2.606-1.589 5.37-2.816 8.24-3.88a.65.65 0 0 1 .59 0c.34.2.45.82.49 1.35a25.62 25.62 0 0 1-1.95 11.9 4.48 4.48 0 0 1-.74 1.31 1 1 0 0 1-1.13.33c-.6-.28-.94-1.28-1.1-2.19a6.13 6.13 0 0 1 .09-3 4.71 4.71 0 0 1 .83-1.32 20.55 20.55 0 0 1 6.4-5.18l.95 3.17c.07.24.19.52.35.5.16-.02.16-.13.22-.23a21.923 21.923 0 0 0 1.84-4.82" stroke="#000" stroke-width="1.5" stroke-linecap="round" stroke-linejoin="round"/></svg>