<svg width="24" height="24" fill="none" xmlns="http://www.w3.org/2000/svg"><path d="M.5 8A1.5 1.5 0 0 1 2 6.5h20A1.5 1.5 0 0 1 23.5 8v8a1.5 1.5 0 0 1-1.5 1.5H2A1.5 1.5 0 0 1 .5 16V8z" stroke="#000" stroke-opacity=".66"/><path d="M7.086 9.393a.25.25 0 0 1 .25-.25h1.753a.5.5 0 0 1 .487.386l.093.4a.25.25 0 0 0 .244.193h.676a.2.2 0 0 0 .2-.211l-.09-1.674a.25.25 0 0 0-.25-.237H2.35a.25.25 0 0 0-.25.237l-.09 1.674a.2.2 0 0 0 .2.21h.687a.25.25 0 0 0 .24-.18l.128-.438a.5.5 0 0 1 .48-.36h1.775a.25.25 0 0 1 .25.25V14.696a.25.25 0 0 1-.215.248l-1.01.14a.5.5 0 0 0-.432.495v.321a.1.1 0 0 0 .1.1h4.372a.1.1 0 0 0 .1-.1v-.324a.5.5 0 0 0-.43-.495l-.956-.136a.25.25 0 0 1-.214-.248V9.393z" fill="#000"/></svg>