<svg width="24" height="24" viewBox="0 0 24 24" fill="none" xmlns="http://www.w3.org/2000/svg">
<rect x="4.5" y="5.5" width="15" height="14" rx="1.5" stroke="black"/>
<path d="M11.7609 17V15.9715H9.35544L10.3414 15.3255C11.1999 14.79 11.5994 14.263 11.5994 13.5405C11.5994 12.631 10.8259 11.917 9.40644 11.917C8.65844 11.917 7.91894 12.155 7.43444 12.376L7.75744 13.3535C8.12294 13.209 8.67544 13.005 9.20244 13.005C9.91644 13.005 10.2479 13.345 10.2479 13.7275C10.2479 14.0845 10.0609 14.3395 9.27894 14.8665L7.42594 16.099V17H11.7609ZM14.495 17L16.688 12.903V12.0275H12.455V13.0645H15.2685L13.0075 17H14.495Z" fill="black"/>
<path opacity="0.66" d="M5 7C5 6.44772 5.44772 6 6 6H18C18.5523 6 19 6.44772 19 7V9.5H5V7Z" fill="black"/>
<rect x="6" y="4" width="2" height="3" rx="1" fill="black"/>
<rect x="16" y="4" width="2" height="3" rx="1" fill="black"/>
</svg>
