<svg xmlns="http://www.w3.org/2000/svg" viewBox="0 0 100 100"><defs><style>.cls-3-redaction{fill:#c3cfd6}.cls-3-redaction,.cls-5-redaction{mix-blend-mode:multiply}.cls-4-redaction{fill:#942e53}.cls-5-redaction{fill:gray}</style></defs><g style="isolation:isolate"><g id="Ikone_simple" data-name="Ikone simple"><path fill="#fff" d="M0 0h100v100H0z"/><path class="cls-3-redaction" d="M14 46h72v3.65H14zM14 54h72v3.65H14zM14 62h72v3.65H14zM14 70h72v3.65H14zM14 14h72v3.65H14zM14 22h72v3.65H14zM14 30h72v3.65H14zM14 38h72v3.65H14zM14 78h72v3.65H14z"/><circle class="cls-3-redaction" cx="50" cy="92" r="3.47"/><path class="cls-4-redaction" d="M55.98 19.75H86v7.65H55.98zM37.93 60H86v7.65H37.93zM14 36h44.06v7.65H14z"/><path class="cls-5-redaction" d="M86 19.75v1.53H57.51v6.12h-1.53v-7.65H86zM58.06 36v1.53H15.53v6.12H14V36h44.06zM86 60v1.53H39.46v6.12h-1.53V60H86z"/></g></g></svg>
