<svg width="52" height="53" fill="none" xmlns="http://www.w3.org/2000/svg"><path d="M26.213 24.201L5.707 44.707l21.213-7.071 6.364-6.364" stroke="currentColor" stroke-width="2"/><path opacity=".33" d="M9.236 42.579l16.97-5.657 3.16-3.16-1.375 1.376c-.933-.038-1.724-.349-1.724-.349l-13.823 4.582-3.208 3.208zM25.506 23.494l9.9-9.9 8.485 8.486-9.9 9.9-8.485-8.486z" fill="currentColor"/><path opacity=".33" d="M25.506 23.494l1.414-1.414 8.485 8.485-1.414 1.414-8.485-8.485z" fill="currentColor"/><path d="M42.533 7.881L24.8 25.615a5 5 0 000 7.071v0a5 5 0 007.071 0L42.538 22.02" stroke="currentColor" stroke-width="2" stroke-linecap="round"/><path fill-rule="evenodd" clip-rule="evenodd" d="M10.707 11.293a1 1 0 00-1.414 1.414L13.586 17l-4.293 4.293a1 1 0 101.414 1.414L15 18.414l4.293 4.293a1 1 0 001.414-1.414L16.414 17l4.293-4.293a1 1 0 00-1.414-1.414L15 15.586l-4.293-4.293z" fill="currentColor"/></svg>
