<svg xmlns="http://www.w3.org/2000/svg" viewBox="0 0 100 100"><g data-name="Ikone simple"><path fill="#fff" d="M0 0h100v100H0z"/><path fill="#c3cfd6" style="mix-blend-mode:multiply" d="M100 81.65L81.65 100H50V0h50v81.65z"/><path fill="#c3cfd6" style="mix-blend-mode:multiply" d="M60.5 14h29v3.65h-29zM60.5 22h29v3.65h-29zM60.5 30h29v3.65h-29zM60.5 38h29v3.65h-29z"/><circle cx="75" cy="92" r="3.47" fill="#46b0ad" style="mix-blend-mode:multiply"/><path d="M22.7 48.21a2.74 2.74 0 0 1-.5 0z" fill="#8bcdfd"/><path fill="#c3cfd6" style="mix-blend-mode:multiply" d="M7 14h36v67.65H7z"/><circle cx="25" cy="92" r="3.47" fill="#46b0ad"/><path fill="#942e53" d="M81.65 81.65V100L100 81.65H81.65z"/><path fill="none" stroke="#942e53" stroke-linecap="square" stroke-miterlimit="10" stroke-width="2" d="M27.17 50H75"/><path fill="#942e53" d="M33.8 58.18l1.36-1.46L27.94 50l7.22-6.71-1.36-1.47L25 50l8.8 8.18z"/></g></svg>