<svg width="24" height="24" viewBox="0 0 24 24" fill="none" xmlns="http://www.w3.org/2000/svg">
<circle opacity="0.66" cx="12" cy="12" r="12" fill="#FFEE95"/>
<path d="M8.75 18.5H15.25C15.9404 18.5 16.5 17.9404 16.5 17.25V12.75C16.5 12.0596 15.9404 11.5 15.25 11.5H8.75C8.05964 11.5 7.5 12.0596 7.5 12.75V17.25C7.5 17.9404 8.05964 18.5 8.75 18.5Z" stroke="#2B2E36"/>
<path opacity="0.66" d="M8.75 18H15.25C15.6642 18 16 17.6642 16 17.25V12.75C16 12.3358 15.6642 12 15.25 12H8.75C8.33579 12 8 12.3358 8 12.75V17.25C8 17.6642 8.33579 18 8.75 18Z" fill="#FAD40C"/>
<path d="M15 11.5V9C15 7.34315 13.6569 6 12 6V6C10.3431 6 9 7.34315 9 9V11.5" stroke="#2B2E36"/>
</svg>

