<svg width="24" height="24" fill="none" xmlns="http://www.w3.org/2000/svg"><path d="M7.906 12.265c0 1.57 0 3.105-.036 4.603l-1.37.146V18h5.206c4.53 0 5.662-1.845 5.662-3.36 0-1.645-1.096-2.74-3.818-3.07 2.393-.438 3.105-1.497 3.105-2.739C16.655 7.224 15.505 6 12.4 6H6.5v.986l1.37.146c.036 1.535.036 3.087.036 4.603v.53zm3.69-5.206c1.425 0 2.1.64 2.1 1.991 0 1.443-.712 2.192-2.264 2.192h-.512c0-1.406 0-2.813.037-4.183h.639zm-.055 5.151c1.808 0 2.685.73 2.685 2.393 0 1.552-.986 2.338-2.685 2.338h-.584c-.037-1.498-.037-3.014-.037-4.731h.621z" fill="#000"/></svg>
