<svg width="24" height="24" fill="none" xmlns="http://www.w3.org/2000/svg"><path opacity=".66" d="M21.545 20.16a1.5 1.5 0 1 1-3 0c0-.83.67-3.37 1.5-3.37s1.5 2.54 1.5 3.37z" fill="#3D424E"/><path d="M13.114 16.389l1.648-1.648-3.536-3.535L7.691 7.67 6.043 9.318a1.12 1.12 0 0 0-.021 1.563l5.508 5.508a1.12 1.12 0 0 0 1.584 0z" stroke="#3D424E" stroke-width=".9" stroke-miterlimit="10"/><path d="M7.67 7.64s4.6-4.6 3.89-5.3l3.54 3.53L13 8l3.53-.7 4.25 4.24-.71 2.12s0-1.41-2.12-.71a8.77 8.77 0 0 0-3.19 1.77" stroke="#3D424E" stroke-width=".9" stroke-linecap="round" stroke-linejoin="round"/><path d="M7.76 13.39L9 14.62 5.66 18.9a1.55 1.55 0 1 1-2.18-2.17l4.28-3.34zm.08-1.34l-.69.55-4.28 3.34a2.55 2.55 0 0 0 1.57 4.56 2.52 2.52 0 0 0 2-1l3.35-4.28.54-.7-.62-.62-1.24-1.22-.63-.63z" fill="#3D424E"/><path opacity=".33" d="M20.76 11.53l-4.25-4.24-2.07.41C15 9.5 16 10 17 10.5s-.752 1.44-1 3.18c.568-.285 1.327-.509 1.93-.71 2.12-.7 2.12.71 2.12.71l.71-2.15zM10.21 4.9C10.5 5.5 12 4 14 7l1.1-1.13-3.54-3.53c.34.33-.44 1.46-1.35 2.56z" fill="#3D424E"/></svg>
