<svg width="24" height="24" fill="none" xmlns="http://www.w3.org/2000/svg"><path d="M2.6 11.1L9 17.5c.6.6 1.5.6 2.1 0l6-6h1.6c.4 0 .7-.5.4-.9l-8.9-8.9c-.1-.1-.3-.1-.4 0L2.6 8.9c-.6.6-.6 1.6 0 2.2z" stroke="#3D424E" stroke-miterlimit="10" stroke-linecap="round" stroke-linejoin="round"/><path d="M11.4 9.8a1.2 1.2 0 1 0 0-2.4 1.2 1.2 0 0 0 0 2.4z" fill="#3D424E"/><path d="M11.4 8.6L3.6 5.1" stroke="#3D424E" stroke-miterlimit="10" stroke-linecap="round"/><path opacity=".66" d="M21.5 19.7c0 .8-.7 1.5-1.5 1.5s-1.5-.7-1.5-1.5.7-3.4 1.5-3.4 1.5 2.6 1.5 3.4z" fill="#3D424E"/><path opacity=".33" d="M3.5 12H16l-.7 1.1L10 18l-6.5-6z" fill="#3D424E"/></svg>
