<svg width="24" height="24" fill="none" xmlns="http://www.w3.org/2000/svg"><path d="M8.987 6.013h4.825a.2.2 0 0 0 .2-.2V4.25a.25.25 0 0 0-.25-.25H2.223a.25.25 0 0 0-.25.25v1.563c0 .11.09.2.2.2h4.842V15.9a.1.1 0 0 0 .1.1h1.772a.1.1 0 0 0 .1-.1V6.013z" fill="#3D424E"/><path opacity=".66" d="M20.925 12.923c-.408-1.224-1.199-1.333-2.428-1.333h-1.073v5.491c0 1.18.14 1.856 2.012 1.925v.992H13.61v-.992c1.803-.07 1.942-.745 1.942-1.925v-5.56h-1.158c-1.218 0-1.997.199-2.358 1.402h-.969c.07-1.11.208-2.29.278-3.261h.76c.278.347.486.347 1.04.347h6.81c.555 0 .694-.07.971-.347h.723c0 .763.14 2.22.208 3.192l-.93.07z" fill="#3D424E"/></svg>
