<svg width="24" height="24" fill="none" xmlns="http://www.w3.org/2000/svg"><path d="M19.861 4c-1.23 0-3.407.874-4.05 5.073l-.02.171-1.968.171-.151.722h1.968a321.22 321.22 0 0 1-1.23 7.448c-.36 1.976-.681 3.04-1.155 3.743-.264.361-.53.627-.776.817l-.227-.228c-.416-.418-.832-.779-1.381-.779-.417 0-.795.285-.871.684.17.722.909 1.178 1.76 1.178.606 0 1.23-.228 2.007-.931 1.06-.95 1.552-2.451 1.95-4.484.472-2.394.87-4.997 1.267-7.41l2.442.076.151-1.007h-2.441c.019-.076.019-.133.038-.209.473-2.907 1.324-3.971 2.29-4.408l.303.361c.605.741.927 1.045 1.495 1.045.34 0 .605-.19.738-.646C21.849 4.684 20.978 4 19.861 4zM4.406 12.338c0 1.534 0 3.05-.036 4.53L3 17.014V18h6.137v-.986l-1.626-.165c-.036-1.424-.036-2.886-.036-4.511h2.009l.237 1.607h1.06v-4.11H9.72l-.219 1.425H7.475c0-1.424 0-2.849.036-4.237h3.179l.365 2.119h1.516L12.443 6H3v.986l1.37.146c.036 1.498.036 3.032.036 4.53v.676z" fill="#000"/></svg>
