<svg width="24" height="24" fill="none" xmlns="http://www.w3.org/2000/svg"><path opacity=".75" d="M8.987 7.964a.25.25 0 0 1 .25-.25h3.404a.5.5 0 0 1 .462.31l.152.37a.25.25 0 0 0 .231.154h.326a.2.2 0 0 0 .2-.2V6.25a.25.25 0 0 0-.25-.25H2.223a.25.25 0 0 0-.25.25v2.098c0 .11.09.2.2.2h.345a.25.25 0 0 0 .222-.135l.22-.427a.5.5 0 0 1 .444-.272h3.361a.25.25 0 0 1 .25.25v8.571a.25.25 0 0 1-.239.25l-1.768.075a.5.5 0 0 0-.478.5v.54a.1.1 0 0 0 .1.1h6.657a.1.1 0 0 0 .1-.1v-.541a.5.5 0 0 0-.478-.5l-1.683-.074a.25.25 0 0 1-.24-.25V7.964z" fill="#3D424E"/><path d="M21.5 8l-2-2m0 0l-2 2m2-2v12m0 0l2-2m-2 2l-2-2" stroke="#3D424E" stroke-miterlimit="10" stroke-linecap="round"/></svg>
