<svg width="24" height="24" fill="none" xmlns="http://www.w3.org/2000/svg"><circle cx="4.25" cy="17.5" r=".75" transform="rotate(90 4.25 17.5)" fill="#000"/><path d="M4 17.5h16" stroke="#000" stroke-linecap="round" stroke-dasharray="0.01 1.99"/><circle cx="19.75" cy="17.5" r=".75" transform="rotate(90 19.75 17.5)" fill="#000"/><circle cx="4.25" cy="13.5" r=".75" transform="rotate(90 4.25 13.5)" fill="#000"/><path d="M4 13.5h16" stroke="#000" stroke-dasharray="2 2"/><circle cx="19.75" cy="13.5" r=".75" transform="rotate(90 19.75 13.5)" fill="#000"/><circle cx="4.25" cy="9.5" r=".75" transform="rotate(90 4.25 9.5)" fill="#000"/><path d="M4 9.5h16" stroke="#000" stroke-dasharray="6 2"/><circle cx="19.75" cy="9.5" r=".75" transform="rotate(90 19.75 9.5)" fill="#000"/><circle cx="4.247" cy="5.5" r=".75" transform="rotate(90 4.247 5.5)" fill="#000"/><path d="M4 5.5h16" stroke="#000"/><circle cx="19.751" cy="5.5" r=".749" transform="rotate(90 19.751 5.5)" fill="#000"/></svg>
