<svg width="24" height="24" fill="none" xmlns="http://www.w3.org/2000/svg"><path opacity=".2" d="M17.5 9v7a1.5 1.5 0 0 1-1.5 1.5H8A1.5 1.5 0 0 1 6.5 16V9" stroke="#2B2E36"/><path opacity=".2" d="M17.5 10.5V16a1.5 1.5 0 0 1-1.5 1.5H8A1.5 1.5 0 0 1 6.5 16v-5.5" stroke="#000"/><path opacity=".2" d="M17.5 12v4a1.5 1.5 0 0 1-1.5 1.5H8A1.5 1.5 0 0 1 6.5 16v-4" stroke="#000"/><path opacity=".2" d="M17.5 13.5V16a1.5 1.5 0 0 1-1.5 1.5H8A1.5 1.5 0 0 1 6.5 16v-2.5" stroke="#000"/><path opacity=".2" d="M17.5 15v1a1.5 1.5 0 0 1-1.5 1.5H8A1.5 1.5 0 0 1 6.5 16v-1" stroke="#000"/><path d="M10 12l2 2 2-2" stroke="#2B2E36" stroke-width="1.25" stroke-linecap="round"/><path opacity=".75" d="M6 7.5A1.5 1.5 0 0 1 7.5 6h9A1.5 1.5 0 0 1 18 7.5V9H6V7.5z" fill="#2B2E36"/></svg>
