<svg width="24" height="24" fill="none" xmlns="http://www.w3.org/2000/svg"><path opacity=".5" d="M14.28 8.536a.25.25 0 0 1 .25-.25h2.08a.5.5 0 0 1 .487.385l.124.523a.25.25 0 0 0 .243.193h.825a.2.2 0 0 0 .2-.21l-.106-1.94a.25.25 0 0 0-.25-.237H8.867a.25.25 0 0 0-.25.236l-.106 1.94a.2.2 0 0 0 .2.211h.836a.25.25 0 0 0 .24-.18l.166-.563a.5.5 0 0 1 .48-.358h2.103a.25.25 0 0 1 .25.25v6.025a.25.25 0 0 1-.216.247l-1.235.169a.5.5 0 0 0-.432.495v.428a.1.1 0 0 0 .1.1h4.994a.1.1 0 0 0 .1-.1v-.43a.5.5 0 0 0-.43-.495l-1.173-.166a.25.25 0 0 1-.215-.248V8.536z" fill="#3D424E"/><path d="M5 19.5H2.5V17m0-5.5V14m0-2.5V9m0 2.5H5m0-8H2.5V6" stroke="#3D424E"/></svg>
