<svg width="24" height="24" fill="none" xmlns="http://www.w3.org/2000/svg"><path d="M21.5 17v2.5H19M11.5 19.5H14m-2.5 0H9m2.5 0V17" stroke="#000"/><path opacity=".5" d="M12.28 6.536a.25.25 0 01.25-.25h2.08a.5.5 0 01.487.385l.124.523a.25.25 0 00.243.193h.825a.2.2 0 00.2-.21l-.106-1.94a.25.25 0 00-.25-.237H6.867a.25.25 0 00-.25.236l-.106 1.94a.2.2 0 00.2.211h.836a.25.25 0 00.24-.18l.166-.563a.5.5 0 01.48-.358h2.103a.25.25 0 01.25.25v6.025a.25.25 0 01-.216.247l-1.235.169a.5.5 0 00-.432.495v.428a.1.1 0 00.1.1h4.994a.1.1 0 00.1-.1v-.43a.5.5 0 00-.43-.495l-1.173-.166a.25.25 0 01-.215-.248V6.536z" fill="#000"/><path d="M1.5 17v2.5H4" stroke="#000"/></svg>