<svg xmlns="http://www.w3.org/2000/svg" viewBox="0 0 24 24" preserveAspectRatio="xMinYMin meet"><path fill="none" stroke="currentColor" stroke-linecap="round" stroke-miterlimit="10" stroke-width="2" d="M2 17h20"/><path d="M1.4 7.79A10.22 10.22 0 0 1 4 6.17q4.1-2 8.3-3.54a.88.88 0 0 1 .79 0c.44.27.59 1.1.65 1.79a34.15 34.15 0 0 1-2.59 15.83 6.11 6.11 0 0 1-1 1.75 1.28 1.28 0 0 1-1.5.44c-.8-.38-1.26-1.7-1.47-2.92a8.1 8.1 0 0 1 .13-4 5.78 5.78 0 0 1 1.11-1.76 27.16 27.16 0 0 1 8.51-6.89l1.26 4.22c.09.31.25.69.47.66s.21-.17.28-.31A28.88 28.88 0 0 0 21.4 5" fill="none" stroke="currentColor" stroke-linecap="round" stroke-linejoin="round" stroke-width="2" opacity=".5"/><path fill="none" stroke="currentColor" stroke-linecap="round" stroke-miterlimit="10" d="M2 14l3-3m-3 0l3 3"/></svg>