<svg xmlns="http://www.w3.org/2000/svg" viewBox="0 0 100 100"><path d="M64.13 73.65l-4.66-14H40.16l-4.52 14h-8.51L44.75 22h10.5l17.62 51.65zM50 29.7h-.37l-7.47 22.79H57.4z" fill="#46b0ad"/><path fill="#c3cfd6" style="mix-blend-mode:multiply" d="M14 46h29v3.65H14zm0 8h29v3.65H14zm0 8h29v3.65H14zm0 8h29v3.65H14zm0-56h29v3.65H14zm0 8h29v3.65H14zm0 8h29v3.65H14zm0 8h29v3.65H14zm0 40h29v3.65H14zm43-32h29v3.65H57zm0 8h29v3.65H57zm0 8h29v3.65H57zm0 8h29v3.65H57zm0-56h29v3.65H57zm0 8h29v3.65H57zm0 8h29v3.65H57zm0 8h29v3.65H57zm0 40h29v3.65H57z"/><circle cx="50" cy="92" r="3.47" fill="#c3cfd6" style="mix-blend-mode:multiply"/></svg>